<svg fill="none" height="96" viewBox="0 0 96 96" width="96" xmlns="http://www.w3.org/2000/svg" xmlns:xlink="http://www.w3.org/1999/xlink"><linearGradient id="a" gradientUnits="userSpaceOnUse" x1="7.10008" x2="54.8801" y1="54.7099" y2="52.2799"><stop offset=".09" stop-color="#fc801d"/><stop offset=".23" stop-color="#b07e61"/><stop offset=".41" stop-color="#567db2"/><stop offset=".53" stop-color="#1d7ce6"/><stop offset=".59" stop-color="#087cfa"/></linearGradient><linearGradient id="b" gradientUnits="userSpaceOnUse" x1="84.98" x2="69.05" y1="49.6199" y2="2.02004"><stop offset="0" stop-color="#fe2857"/><stop offset=".08" stop-color="#ca3978"/><stop offset=".16" stop-color="#9d4896"/><stop offset=".25" stop-color="#7556b1"/><stop offset=".34" stop-color="#5362c8"/><stop offset=".44" stop-color="#376bda"/><stop offset=".54" stop-color="#2272e8"/><stop offset=".66" stop-color="#1378f2"/><stop offset=".79" stop-color="#0a7bf8"/><stop offset="1" stop-color="#087cfa"/></linearGradient><linearGradient id="c" gradientUnits="userSpaceOnUse" x1="14.65" x2="74.7299" y1="22.11" y2="121.49"><stop offset="0" stop-color="#fe2857"/><stop offset=".08" stop-color="#fe295f"/><stop offset=".21" stop-color="#fe2d76"/><stop offset=".3" stop-color="#ff318c"/><stop offset=".38" stop-color="#e93795"/><stop offset=".55" stop-color="#b148ae"/><stop offset=".79" stop-color="#5963d5"/><stop offset="1" stop-color="#087cfa"/></linearGradient><path d="m15.2101 67.71-14.13002-11.1499 8.31-15.3902 12.49002 4.1802z" fill="url(#a)"/><path d="m95.9999 25.5901-1.73 55.6099-36.98 14.8-20.14-13z" fill="#087cfa"/><path d="m96 25.5901-18.3 17.8498-23.49-28.8298 11.6-13.04003z" fill="url(#b)"/><path d="m37.15 83-29.41 10.6299 6.17-21.5698 7.97-26.71-21.88-7.3201 13.91-38.03 31.41 3.69995 32.38 39.73995z" fill="url(#c)"/><path d="m78 18h-60v60h60z" fill="#000"/><path d="m26 70h24v-4h-24zm20.58-44.52v15.98c0 .49-.1.92-.31 1.3-.21.37-.5.6601-.87.8701s-.81.3098-1.3.3098h-3.73v3.9402h4.24c1.23 0 2.31-.25 3.26-.76s1.68-1.2201 2.2-2.1501.78-2 .78-3.22v-16.27zm-8.15 18.57h-3.18v-14.75h3.18v-3.82h-10.58v3.82h3.2v14.75h-3.2v3.8201h10.58z" fill="#fff"/></svg>