<?xml version="1.0" standalone="yes"?>
<svg xmlns="http://www.w3.org/2000/svg" width="40" height="40" viewBox="0 0 40 40">
  <path
     id="path10"
     d="m 7.8039401,14.943203 c -4.3690312,0.77875 -6.1406875,6.4875 -4.4822968,10.15625 1.1467968,2.537031 3.4109375,3.863906 6.0447968,4.375 0,-0.633594 0.2361563,-1.860938 -0.1605937,-2.390313 C 8.964737,26.762578 8.4586433,26.67914 8.1164401,26.506953 7.5610183,26.227422 7.0244245,25.85414 6.6009558,25.397422 4.4240183,23.049453 4.8702839,19.354765 7.6476901,17.674297 8.446487,17.191015 9.3985651,16.871484 10.30394,16.661953 c -0.03969,-1.922438 -0.3964686,-3.463078 0.453313,-5.3125 1.885843,-4.1042188 6.640906,-4.295547 9.676218,-1.3610313 1.145313,1.1071563 1.439375,2.4654063 2.057969,3.8610313 2.179844,-0.627969 3.948281,-2.430125 6.249375,-0.898563 0.371719,0.247375 0.702969,0.547125 0.971094,0.904719 0.594219,0.792219 0.555625,2.202281 1.266094,2.811656 0.488906,0.419375 1.155312,0.616719 1.669531,1.014844 1.404687,1.087656 2.440937,2.95 2.115,4.761094 -0.259531,1.442656 -1.078281,2.771562 -2.271094,3.626719 -0.485312,0.347968 -1.359844,0.534843 -1.714375,1.01375 -0.395469,0.534218 -0.160625,1.753593 -0.160625,2.390781 1.285469,-0.265313 2.539219,-0.676406 3.59375,-1.488906 2.757188,-2.124532 3.9,-6.078438 2.451094,-9.292344 -0.432344,-0.958906 -1.044063,-1.905313 -1.832188,-2.609219 -0.549843,-0.491094 -1.307968,-0.79 -1.789218,-1.34839 -0.68,-0.788969 -0.817813,-1.931782 -1.532969,-2.760532 C 30.339565,10.62214 28.372846,9.6843123 26.55394,9.8157654 25.500659,9.8918904 24.582221,10.283703 23.58519,10.568203 22.117378,5.4731873 14.744503,3.992156 10.77269,7.057156 8.308862,8.9584685 7.8039401,12.033812 7.8039401,14.943203 Z"
     style="fill:#5a7a94;stroke:none;stroke-width:0.15625" />
  <path
     id="path12"
     d="m 12.49144,6.0369529 0.15625,0.15625 -0.15625,-0.15625 m 10.625,3.4375 0.15625,0.15625 -0.15625,-0.15625 m 0.15625,0.3125 0.15625,0.15625 -0.15625,-0.15625 m 0.625,0.6250001 0.15625,0.15625 -0.15625,-0.15625 m -15.7812499,0.625 0.15625,0.15625 -0.15625,-0.15625 m 23.5937499,1.25 0.15625,0.15625 -0.15625,-0.15625 m -21.5625,0.46875 0.15625,0.15625 -0.15625,-0.15625 m -0.1562499,1.875 0.1562499,0.15625 -0.1562499,-0.15625 m 20.3124999,0.3125 0.15625,0.15625 -0.15625,-0.15625 m 3.125,0.15625 0.15625,0.15625 -0.15625,-0.15625 m 2.03125,1.71875 0.15625,0.15625 -0.15625,-0.15625 m -26.5624999,0.15625 0.15625,0.15625 -0.15625,-0.15625 m -4.84375,0.46875 0.15625,0.15625 -0.15625,-0.15625 m 31.8749999,0 0.15625,0.15625 -0.15625,-0.15625 m -28.9062499,0.46875 0.15625,0.15625 -0.15625,-0.15625 m -3.90625,1.25 0.15625,0.15625 -0.15625,-0.15625 m 31.0937499,0.3125 0.15625,0.15625 z"
     style="fill:#0000ff;stroke:none;stroke-width:0.15625" />
  <path
     id="path14"
     d="m 11.248315,21.46789 c -0.899765,0.336407 -0.985453,1.493125 -0.569672,2.225313 0.619797,1.091406 1.688203,2.019844 2.503985,2.96875 0.283953,0.330312 0.839,0.774219 0.839,1.25 0,0.518281 -0.66,1.045 -0.971375,1.40625 -0.811235,0.941406 -2.236719,2.05125 -2.573297,3.28125 -0.242219,0.885 0.347859,2.020625 1.389484,1.800312 0.695969,-0.147031 1.146985,-0.832812 1.586735,-1.331562 0.961718,-1.090625 1.936031,-2.173281 2.877796,-3.28125 0.511719,-0.602188 1.052657,-1.187188 0.984844,-2.03125 -0.09531,-1.185469 -1.500937,-2.274531 -2.234312,-3.125 -0.759782,-0.881094 -1.502532,-1.813438 -2.322172,-2.639219 -0.399781,-0.402812 -0.925375,-0.742656 -1.511016,-0.523594 m 6.71875,-0.0025 c -1.126094,0.458907 -1.006562,2.301719 0.151719,2.62875 0.713437,0.201563 1.605625,0.06781 2.341406,0.06781 h 4.84375 c 0.777031,0 1.93875,0.210156 2.639219,-0.184219 0.992344,-0.558594 0.787812,-2.253906 -0.297813,-2.560469 -0.713437,-0.201562 -1.605625,-0.06781 -2.341406,-0.06781 h -4.53125 c -0.841406,0 -2.014375,-0.206406 -2.805625,0.115937 z"
     style="fill:#0092d1;stroke:none;stroke-width:0.15625" />
  <path
     id="path16"
     d="m 10.46019,21.974453 0.15625,0.15625 -0.15625,-0.15625 m 2.5,0.3125 0.15625,0.15625 -0.15625,-0.15625 m -2.65625,0.3125 0.15625,0.15625 -0.15625,-0.15625 m 3.75,0.9375 0.15625,0.15625 -0.15625,-0.15625 m -3.28125,0.3125 0.15625,0.15625 -0.15625,-0.15625 m 7.03125,0.15625 0.15625,0.15625 -0.15625,-0.15625 m -2.65625,0.78125 0.15625,0.15625 -0.15625,-0.15625 m -3.28125,0.3125 0.15625,0.15625 z"
     style="fill:#00ffff;stroke:none;stroke-width:0.15625" />
  <path
     id="path18"
     d="m 20.164096,26.62164 c -1.0175,0.431875 -1.0175,2.14875 0,2.580625 0.543125,0.230469 1.281875,0.115938 1.858594,0.115938 h 3.90625 c 0.622031,0 1.450469,0.133125 2.014219,-0.184219 0.992344,-0.558594 0.787812,-2.253906 -0.297813,-2.560469 -1.555468,-0.439218 -3.695468,-0.06781 -5.310156,-0.06781 -0.662031,0 -1.548906,-0.148125 -2.171094,0.115937 z"
     style="fill:#0092d1;stroke:none;stroke-width:0.15625" />
  <path
     id="path20"
     d="m 14.05394,27.599453 0.15625,0.15625 z"
     style="fill:#00ffff;stroke:none;stroke-width:0.15625" />
  <path
     id="path22"
     d="m 17.967065,31.77789 c -1.126094,0.458907 -1.006562,2.301719 0.151719,2.62875 0.713437,0.201563 1.605625,0.06781 2.341406,0.06781 h 4.84375 c 0.777031,0 1.93875,0.210156 2.639219,-0.184219 0.992344,-0.558594 0.787812,-2.253906 -0.297813,-2.560469 -0.713437,-0.201562 -1.605625,-0.06781 -2.341406,-0.06781 h -4.53125 c -0.841406,0 -2.014375,-0.206406 -2.805625,0.115937 z"
     style="fill:#0092d1;stroke:none;stroke-width:0.15625" />
  <path
     id="path24"
     d="m 10.30394,33.068203 0.15625,0.15625 z"
     style="fill:#00ffff;stroke:none;stroke-width:0.15625" />
</svg>
