<?xml version="1.0" standalone="yes"?>
<svg xmlns="http://www.w3.org/2000/svg" width="256" height="256">
    <path style="fill:#5a7a94; stroke:none;"
          d="M50 98C22.0382 102.984 10.6996 139.52 21.3133 163C28.6528 179.237 43.1433 187.729 60 191C60 186.945 61.5114 179.09 58.9722 175.702C57.4291 173.644 54.1901 173.11 52 172.008C48.4453 170.219 45.0111 167.83 42.3009 164.907C28.3685 149.88 31.2246 126.234 49 115.479C54.1123 112.386 60.2056 110.341 66 109C65.746 96.6964 63.4626 86.8363 68.9012 75C80.9706 48.733 111.403 47.5085 130.829 66.2894C138.159 73.3752 140.041 82.068 144 91C157.951 86.981 169.269 75.4472 183.996 85.2492C186.375 86.8324 188.495 88.7508 190.211 91.0394C194.014 96.1096 193.767 105.134 198.314 109.034C201.443 111.718 205.708 112.981 208.999 115.529C217.989 122.49 224.621 134.409 222.535 146C220.874 155.233 215.634 163.738 208 169.211C204.894 171.438 199.297 172.634 197.028 175.699C194.497 179.118 196 186.922 196 191C204.227 189.302 212.251 186.671 219 181.471C236.646 167.874 243.96 142.569 234.687 122C231.92 115.863 228.005 109.806 222.961 105.301C219.442 102.158 214.59 100.245 211.51 96.6713C207.158 91.6219 206.276 84.3079 201.699 79.0039C194.228 70.3452 181.641 64.3431 170 65.1844C163.259 65.6716 157.381 68.1792 151 70C141.606 37.3919 94.4196 27.9133 69 47.5293C53.2315 59.6977 50 79.3799 50 98z"/>
    <path style="fill:#0000ff; stroke:none;"
          d="M80 41L81 42L80 41M148 63L149 64L148 63M149 65L150 66L149 65M153 69L154 70L153 69M52 73L53 74L52 73M203 81L204 82L203 81M65 84L66 85L65 84M64 96L65 97L64 96M194 98L195 99L194 98M214 99L215 100L214 99M227 110L228 111L227 110M57 111L58 112L57 111M26 114L27 115L26 114M230 114L231 115L230 114M45 117L46 118L45 117M20 125L21 126L20 125M219 127L220 128L219 127z"/>
    <path style="fill:#0092d1; stroke:none;"
          d="M72.044 139.758C66.2855 141.911 65.7371 149.314 68.3981 154C72.3648 160.985 79.2026 166.927 84.4236 173C86.2409 175.114 89.7932 177.955 89.7932 181C89.7932 184.317 85.5692 187.688 83.5764 190C78.3845 196.025 69.2614 203.128 67.1073 211C65.5571 216.664 69.3336 223.932 76 222.522C80.4542 221.581 83.3407 217.192 86.1551 214C92.3101 207.02 98.5457 200.091 104.573 193C107.848 189.146 111.31 185.402 110.876 180C110.266 172.413 101.27 165.443 96.5764 160C91.7138 154.361 86.9602 148.394 81.7145 143.109C79.1559 140.531 75.7921 138.356 72.044 139.758M115.044 139.742C107.837 142.679 108.602 154.473 116.015 156.566C120.581 157.856 126.291 157 131 157L162 157C166.973 157 174.408 158.345 178.891 155.821C185.242 152.246 183.933 141.396 176.985 139.434C172.419 138.144 166.709 139 162 139L133 139C127.615 139 120.108 137.679 115.044 139.742z"/>
    <path style="fill:#00ffff; stroke:none;"
          d="M67 143L68 144L67 143M83 145L84 146L83 145M66 147L67 148L66 147M90 153L91 154L90 153M69 155L70 156L69 155M114 156L115 157L114 156M97 161L98 162L97 161M76 163L77 164L76 163z"/>
    <path style="fill:#0092d1; stroke:none;"
          d="M129.105 172.742C122.593 175.506 122.593 186.494 129.105 189.258C132.581 190.733 137.309 190 141 190L166 190C169.981 190 175.283 190.852 178.891 188.821C185.242 185.246 183.933 174.396 176.985 172.434C167.03 169.623 153.334 172 143 172C138.763 172 133.087 171.052 129.105 172.742z"/>
    <path style="fill:#00ffff; stroke:none;" d="M90 179L91 180L90 179z"/>
    <path style="fill:#0092d1; stroke:none;"
          d="M115.044 205.742C107.837 208.679 108.602 220.473 116.015 222.566C120.581 223.856 126.291 223 131 223L162 223C166.973 223 174.408 224.345 178.891 221.821C185.242 218.246 183.933 207.396 176.985 205.434C172.419 204.144 166.709 205 162 205L133 205C127.615 205 120.108 203.679 115.044 205.742z"/>
    <path style="fill:#00ffff; stroke:none;" d="M66 214L67 215L66 214z"/>
</svg>
