<?xml version="1.0" encoding="UTF-8"?>
<svg
   xmlns="http://www.w3.org/2000/svg"
   id="svg1626"
   version="1.1"
   height="16"
   width="16">
  <path
     style="fill:#9ab1c2;stroke:none;stroke-width:0.0625;fill-opacity:1"
     d="m 3.121576,5.9772812 c -1.7476124,0.3115 -2.45627496,2.595 -1.7929187,4.0624998 0.4587187,1.014813 1.364375,1.545563 2.4179187,1.75 0,-0.253437 0.094463,-0.744375 -0.064237,-0.956125 -0.096444,-0.128625 -0.2988817,-0.162 -0.435763,-0.230875 C 3.0244073,10.490969 2.8097698,10.341656 2.6403823,10.158969 1.7696073,9.2197812 1.9481136,7.741906 3.059076,7.0697188 3.3785948,6.876406 3.759426,6.7485936 4.121576,6.6647812 4.1057,5.895806 3.9629886,5.27955 4.3029012,4.5397812 5.0572384,2.8980937 6.9592636,2.8215624 8.1733884,3.9953687 c 0.4581252,0.4428625 0.57575,0.9861625 0.8231876,1.5444125 0.8719376,-0.2511876 1.579312,-0.97205 2.49975,-0.3594252 0.148688,0.09895 0.281188,0.21885 0.388438,0.3618876 0.237687,0.3168876 0.22225,0.8809124 0.506437,1.1246624 0.195563,0.16775 0.462125,0.2466876 0.667813,0.4059376 0.561874,0.4350624 0.976374,1.18 0.846,1.9044376 -0.103813,0.5770624 -0.431313,1.1086248 -0.908438,1.4506878 -0.194125,0.139187 -0.543938,0.213937 -0.68575,0.4055 -0.158188,0.213687 -0.06425,0.701437 -0.06425,0.956312 0.514188,-0.106125 1.015688,-0.270562 1.4375,-0.595562 1.102875,-0.849813 1.56,-2.4313754 0.980438,-3.7169378 C 14.491576,7.0937188 14.246888,6.715156 13.931638,6.4335936 13.711701,6.237156 13.408451,6.1175936 13.215951,5.8942376 12.943951,5.57865 12.888826,5.1215248 12.602764,4.7900248 12.135826,4.248856 11.349138,3.8737249 10.621576,3.9263062 c -0.421312,0.03045 -0.7886876,0.187175 -1.1875,0.300975 -0.5871248,-2.0380063 -3.5362748,-2.6304188 -5.125,-1.4044188 -0.9855312,0.760525 -1.1875,1.9906624 -1.1875,3.1544188 z"
     id="path10" />
  <path
     style="fill:#0000ff;stroke:none;stroke-width:0.0625"
     d="m 4.996576,2.4147812 0.0625,0.0625 -0.0625,-0.0625 m 4.25,1.375 0.0625,0.0625 -0.0625,-0.0625 m 0.0625,0.125 0.0625,0.0625 -0.0625,-0.0625 m 0.25,0.25 0.0625,0.0625 -0.0625,-0.0625 m -6.3125,0.25 0.0625,0.0625 -0.0625,-0.0625 m 9.4375,0.5 0.0625,0.0625 -0.0625,-0.0625 m -8.625,0.1875 0.0625,0.0625 -0.0625,-0.0625 m -0.0625,0.75 0.0625,0.0625 -0.0625,-0.0625 m 8.125,0.125 0.0625,0.0625 -0.0625,-0.0625 m 1.25,0.0625 0.0625,0.0625 -0.0625,-0.0625 m 0.8125,0.6875 0.0625,0.0625 -0.0625,-0.0625 m -10.625,0.0625 0.0625,0.0625 -0.0625,-0.0625 m -1.9375,0.1875 0.0625,0.0625 -0.0625,-0.0625 m 12.75,0 0.0625,0.0625 -0.0625,-0.0625 m -11.5625,0.1875 0.0625,0.0625 -0.0625,-0.0625 m -1.5625,0.5 0.0625,0.0625 -0.0625,-0.0625 m 12.4375,0.125 0.0625,0.0625 z"
     id="path12" />
  <path
     style="fill:#0092d1;stroke:none;stroke-width:0.0625"
     d="M 4.499326,8.587156 C 4.13942,8.7217188 4.1051448,9.184406 4.2714572,9.4772812 c 0.2479188,0.4365624 0.6752812,0.8079378 1.001594,1.1874998 0.1135812,0.132125 0.3356,0.309688 0.3356,0.5 0,0.207313 -0.264,0.418 -0.38855,0.5625 -0.324494,0.376563 -0.8946876,0.8205 -1.0293188,1.3125 -0.096888,0.354 0.1391436,0.80825 0.5557936,0.720125 0.2783876,-0.05881 0.458794,-0.333125 0.634694,-0.532625 0.3846872,-0.43625 0.7744124,-0.869312 1.1511184,-1.3125 C 6.737076,11.673906 6.9534512,11.439906 6.926326,11.102281 6.888202,10.628094 6.3259512,10.192469 6.0326012,9.8522812 5.7286884,9.4998436 5.4315884,9.126906 5.1037324,8.7965936 4.94382,8.6354688 4.7335824,8.4995312 4.499326,8.587156 m 2.6875,-10e-4 C 6.7363884,8.7697188 6.7842012,9.5068436 7.247514,9.637656 7.5328888,9.718281 7.889764,9.66478 8.1840764,9.66478 h 1.9374996 c 0.310812,0 0.7755,0.084062 1.055688,-0.073688 C 11.574201,9.3676548 11.492388,8.68953 11.058138,8.5669048 10.772764,8.48628 10.415888,8.5397808 10.121576,8.5397808 h -1.8125 c -0.3365624,0 -0.80575,-0.082562 -1.12225,0.046375 z"
     id="path14" />
  <path
     style="fill:#00ffff;stroke:none;stroke-width:0.0625"
     d="m 4.184076,8.7897812 0.0625,0.0625 -0.0625,-0.0625 m 1,0.125 0.0625,0.0625 -0.0625,-0.0625 m -1.0625,0.125 0.0625,0.0625 -0.0625,-0.0625 m 1.5,0.375 0.0625,0.0625 -0.0625,-0.0625 m -1.3125,0.125 0.0625,0.0625 -0.0625,-0.0625 m 2.8125,0.0625 0.0625,0.0625 -0.0625,-0.0625 m -1.0625,0.3125 0.0625,0.0625 -0.0625,-0.0625 m -1.3125,0.1249998 0.0625,0.0625 z"
     id="path16" />
  <path
     style="fill:#0092d1;stroke:none;stroke-width:0.0625"
     d="m 8.0656384,10.648656 c -0.407,0.17275 -0.407,0.8595 0,1.03225 0.21725,0.09219 0.51275,0.04637 0.7434376,0.04637 h 1.5625 c 0.248812,0 0.580188,0.05325 0.805688,-0.07369 0.396937,-0.223438 0.315124,-0.901563 -0.119126,-1.024188 -0.622187,-0.175687 -1.4781868,-0.02712 -2.124062,-0.02712 -0.2648124,0 -0.6195624,-0.05925 -0.8684376,0.04637 z"
     id="path18" />
  <path
     style="fill:#00ffff;stroke:none;stroke-width:0.0625"
     d="m 5.621576,11.039781 0.0625,0.0625 z"
     id="path20" />
  <path
     style="fill:#0092d1;stroke:none;stroke-width:0.0625"
     d="m 7.186826,12.711156 c -0.4504376,0.183563 -0.4026248,0.920688 0.060688,1.0515 0.2853748,0.08062 0.64225,0.02712 0.9365624,0.02712 h 1.9374996 c 0.310812,0 0.7755,0.08406 1.055688,-0.07369 0.396937,-0.223437 0.315124,-0.901562 -0.119126,-1.024187 -0.285374,-0.08062 -0.64225,-0.02712 -0.936562,-0.02712 H 8.3090764 c -0.3365624,0 -0.80575,-0.08256 -1.12225,0.04638 z"
     id="path22" />
  <path
     style="fill:#00ffff;stroke:none;stroke-width:0.0625"
     d="m 4.121576,13.227281 0.0625,0.0625 z"
     id="path24" />
</svg>
